# xmcd
#
# Track frame offsets: 
#        150
#        12569
#        23939
#        34486
#        43427
#        56055
#        70314
#        84969
#        105505
#        122146
#        133035
#        140817
#        154867
#        166277
#
# Disc length: 2381 seconds
#
# Revision: 1
# Processed by: cddbd v1.5.2PL0 Copyright (c) Steve Scherf et al.
# Submitted via: ExactAudioCopyFreeDBPlugin 1.0
#
DISCID=cd094b0e
DTITLE=Steinar Albrigtsen - Bilda Fra Ei Anna Tid 
DYEAR=2011
DGENRE=Country
TTITLE0=Photographs And Memories
TTITLE1=Thursday
TTITLE2=Alabama Rain
TTITLE3=The Hard Way Every Time
TTITLE4=Hey Tomorrow
TTITLE5=I Got A Name
TTITLE6=Age
TTITLE7=Operator (That's Not The Way It Feels)
TTITLE8=New York's Not My Home
TTITLE9=Lovers Cross
TTITLE10=Careful Man
TTITLE11=One Less Set Of Footsteps
TTITLE12=Time In A Bottle
TTITLE13=I'll Have To Say I Love You In A Song
EXTD=
EXTT0=
EXTT1=
EXTT2=
EXTT3=
EXTT4=
EXTT5=
EXTT6=
EXTT7=
EXTT8=
EXTT9=
EXTT10=
EXTT11=
EXTT12=
EXTT13=
PLAYORDER=
